#!OML:ASF X:\für Bonn\!DataBase\2005_08_10_Bjorn_Final\c3d\bjorn.ASF
:FULLY-SPECIFIED
:DEGREES
323
root -0.0927549 2.26553 8.74397 -2406.49 -10.5451 184.444
lowerback 44.0017 6.26291 4.48244
upperback 27.8054 -4.0845 1.9465
thorax 11.2475 -7.94094 -0.280616
lowerneck 10.4221 11.51 2.56657
upperneck 2.02077 15.1458 -8.17174
head -0.225443 7.61035 -3.47654
rclavicle -1.51076e-014 -3.18055e-015
rhumerus -392.179 1.7675 288.155
rradius 59.0513
rwrist 0.955614
rhand -26.453 17.4772
rfingers 7.12502
rthumb 0.108271 -12.5026
lclavicle -1.51076e-014 -3.18055e-015
lhumerus -30.6861 -54.4102 67.2292
lradius 77.2364
lwrist 27.9854
lhand -42.2764 9.53545
lfingers 7.12502
lthumb -15.1614 758.96
rfemur -261.576 -146.231 182.931
rtibia 120.212
rfoot 35.7949 13.6324
rtoes -0.102425
lfemur 95.9682 170.771 160.902
ltibia 122.559
lfoot 31.395 -6.30917
ltoes -3.31677
324
root -0.0936408 2.25538 8.75615 -2406.68 -10.4891 184.499
lowerback 43.6845 6.36545 4.23545
upperback 27.7527 -3.91868 1.9088
thorax 11.2443 -7.838 -0.240936
lowerneck 10.0261 11.4754 2.71201
upperneck 2.59621 15.1299 -8.10729
head 0.0340567 7.57571 -3.42206
rclavicle 2.78299e-014 1.51076e-014
rhumerus -390.262 1.49167 288.494
rradius 58.1664
rwrist 1.70975
rhand -26.4083 17.2777
rfingers 7.12502
rthumb 0.151384 -12.702
lclavicle 2.78299e-014 1.51076e-014
lhumerus -27.1387 -54.0956 64.6874
lradius 76.2254
lwrist 27.523
lhand -42.8899 8.92419
lfingers 7.12502
lthumb -15.7523 758.303
rfemur -261.313 -146.443 182.869
rtibia 120.116
rfoot 35.8199 13.4454
rtoes -0.0455554
lfemur 96.1573 170.912 161.02
ltibia 122.479
lfoot 31.4903 -6.21104
ltoes -3.03083
325
root -0.0946375 2.24494 8.76772 -2406.86 -10.4462 184.558
lowerback 43.358 6.4516 4.01133
upperback 27.6971 -3.75493 1.84201
thorax 11.2391 -7.72452 -0.242447
lowerneck 9.71543 11.428 2.90735
upperneck 3.07365 15.0982 -8.03057
head 0.248561 7.53866 -3.38445
rclavicle -1.86858e-014 1.74931e-014
rhumerus -388.362 1.14732 288.731
rradius 57.2192
rwrist 2.47958
rhand -26.4947 17.0463
rfingers 7.12502
rthumb 0.0679709 -12.9335
lclavicle -1.86858e-014 1.74931e-014
lhumerus -23.626 -53.6691 62.2046
lradius 75.1635
lwrist 27.2293
lhand -43.4582 8.30806
lfingers 7.12502
lthumb -16.2996 757.643
rfemur -261.071 -146.622 182.805
rtibia 120.025
rfoot 35.8346 13.3332
rtoes -0.0785703
lfemur 96.3191 171.05 161.112
ltibia 122.41
lfoot 31.6074 -6.09269
ltoes -2.78437
326
root -0.0956564 2.2336 8.77981 -2407.04 -10.4126 184.61
lowerback 43.0087 6.55146 3.74672
upperback 27.6499 -3.59264 1.79499
thorax 11.2527 -7.62254 -0.20409
lowerneck 9.51695 11.3746 3.06111
upperneck 3.37838 15.0476 -7.98818
head 0.386233 7.4997 -3.36823
rclavicle -1.09332e-014 -3.18055e-015
rhumerus -386.433 0.841678 288.974
rradius 56.22
rwrist 3.13184
rhand -26.5965 16.9177
rfingers 7.12502
rthumb -0.0303274 -13.062
lclavicle -1.09332e-014 -3.18055e-015
lhumerus -20.2628 -53.0272 59.9573
lradius 74.0744
lwrist 26.9559
lhand -43.8899 7.68808
lfingers 7.12502
lthumb -16.7152 756.988
rfemur -260.833 -146.807 182.73
rtibia 119.93
rfoot 35.8562 13.219
rtoes -0.212454
lfemur 96.4838 171.204 161.193
ltibia 122.338
lfoot 31.7224 -6.01123
ltoes -2.62542
327
root -0.0975795 2.22185 8.79139 -2407.23 -10.3796 184.657
lowerback 42.6591 6.63643 3.49532
upperback 27.593 -3.43439 1.72631
thorax 11.2544 -7.51453 -0.191942
lowerneck 9.35913 11.3183 3.21436
upperneck 3.65004 14.9904 -7.93167
head 0.504631 7.45909 -3.35242
rclavicle 1.15295e-014 2.54444e-014
rhumerus -384.548 0.574833 289.122
rradius 55.187
rwrist 3.48228
rhand -26.7683 16.8415
rfingers 7.12502
rthumb -0.196301 -13.1381
lclavicle 1.15295e-014 2.54444e-014
lhumerus -17.093 -52.2452 57.9309
lradius 72.9312
lwrist 26.6516
lhand -44.2164 7.16057
lfingers 7.12502
lthumb -17.0295 756.434
rfemur -260.592 -146.989 182.647
rtibia 119.835
rfoot 35.8756 13.1099
rtoes -0.296536
lfemur 96.6508 171.349 161.271
ltibia 122.267
lfoot 31.8327 -5.83308
ltoes -2.27161
328
root -0.0992144 2.20944 8.80337 -2407.42 -10.3615 184.721
lowerback 42.3056 6.71606 3.22816
upperback 27.5243 -3.27935 1.6828
thorax 11.2453 -7.41065 -0.140781
lowerneck 9.23904 11.2598 3.3357
upperneck 3.88066 14.9243 -7.89217
head 0.601685 7.41548 -3.34194
rclavicle -3.18055e-014 1.59028e-015
rhumerus -382.72 0.426967 289.249
rradius 54.1905
rwrist 3.45142
rhand -26.9898 16.7656
rfingers 7.12502
rthumb -0.410261 -13.2137
lclavicle -3.18055e-014 1.59028e-015
lhumerus -14.0776 -51.3381 56.1904
lradius 71.6853
lwrist 26.2104
lhand -44.3827 6.72733
lfingers 7.12502
lthumb -17.1896 755.987
rfemur -260.351 -147.145 182.559
rtibia 119.741
rfoot 35.9347 12.9849
rtoes -0.285345
lfemur 96.8095 171.508 161.331
ltibia 122.194
lfoot 31.9594 -5.75501
ltoes -2.12004
329
root -0.100545 2.19639 8.81486 -2407.6 -10.3377 184.77
lowerback 41.8988 6.81487 2.98235
upperback 27.4921 -3.10404 1.64235
thorax 11.2989 -7.29781 -0.1112
lowerneck 9.02305 11.1931 3.43149
upperneck 4.1367 14.8482 -7.78612
head 0.714729 7.36538 -3.29817
rclavicle -2.40529e-014 -7.95139e-015
rhumerus -380.877 0.152996 289.335
rradius 53.1138
rwrist 3.39011
rhand -27.1862 16.8567
rfingers 7.12502
rthumb -0.599914 -13.1222
lclavicle -2.40529e-014 -7.95139e-015
lhumerus -11.0854 -50.3584 54.5737
lradius 70.3543
lwrist 25.6158
lhand -44.4941 6.40482
lfingers 7.12502
lthumb -17.2968 755.655
rfemur -260.12 -147.32 182.476
rtibia 119.649
rfoot 35.9792 12.857
rtoes -0.221466
lfemur 96.9706 171.654 161.402
ltibia 122.121
lfoot 32.0648 -5.56681
ltoes -1.77763
330
root -0.102152 2.18321 8.82601 -2407.79 -10.352 184.815
lowerback 41.4786 6.91113 2.69404
upperback 27.4549 -2.9375 1.59874
thorax 11.3508 -7.19277 -0.0594338
lowerneck 8.8726 11.1239 3.54451
upperneck 4.35825 14.7673 -7.71098
head 0.809254 7.31515 -3.27394
rclavicle 1.21259e-014 -1.74931e-014
rhumerus -379.062 -0.156699 289.407
rradius 51.985
rwrist 3.4089
rhand -27.2927 17.0095
rfingers 7.12502
rthumb -0.702826 -12.9691
lclavicle 1.21259e-014 -1.74931e-014
lhumerus -8.297 -49.2641 53.2389
lradius 68.9128
lwrist 24.8759
lhand -44.5959 5.94354
lfingers 7.12502
lthumb -17.3948 755.185
rfemur -259.89 -147.462 182.353
rtibia 119.553
rfoot 36.0474 12.7617
rtoes -0.185419
lfemur 97.1232 171.809 161.413
ltibia 122.048
lfoot 32.1768 -5.4814
ltoes -1.72104
331
root -0.103527 2.16907 8.83747 -2407.98 -10.3693 184.856
lowerback 41.0414 7.00811 2.40081
upperback 27.4212 -2.76776 1.54365
thorax 11.4129 -7.08492 -0.0185601
lowerneck 8.73588 11.0567 3.72819
upperneck 4.59535 14.6951 -7.65741
head 0.914644 7.27051 -3.2693
rclavicle -4.37326e-015 4.77083e-015
rhumerus -377.272 -0.529955 289.422
rradius 50.754
rwrist 3.48201
rhand -27.3395 17.3789
rfingers 7.12502
rthumb -0.74801 -12.5996
lclavicle -4.37326e-015 4.77083e-015
lhumerus -5.68227 -48.1442 52.1292
lradius 67.3792
lwrist 24.0218
lhand -44.8053 5.44517
lfingers 7.12502
lthumb -17.5963 754.669
rfemur -259.667 -147.598 182.227
rtibia 119.463
rfoot 36.106 12.7193
rtoes -0.335193
lfemur 97.2914 171.951 161.427
ltibia 121.969
lfoot 32.2794 -5.31324
ltoes -1.43923
332
root -0.104677 2.15489 8.84835 -2408.18 -10.3822 184.885
lowerback 40.5772 7.12009 2.10497
upperback 27.4045 -2.58434 1.49886
thorax 11.507 -6.97501 0.0281661
lowerneck 8.57846 10.9743 3.91007
upperneck 4.85591 14.6019 -7.59421
head 1.02888 7.21468 -3.25978
rclavicle -1.47101e-014 1.11319e-014
rhumerus -375.497 -0.99771 289.399
rradius 49.4384
rwrist 3.64537
rhand -27.331 17.8206
rfingers 7.12502
rthumb -0.739738 -12.1578
lclavicle -1.47101e-014 1.11319e-014
lhumerus -3.2458 -46.9792 51.3115
lradius 65.7507
lwrist 23.2948
lhand -45.01 4.45862
lfingers 7.12502
lthumb -17.7932 753.665
rfemur -259.428 -147.753 182.087
rtibia 119.372
rfoot 36.1936 12.572
rtoes -0.145175
lfemur 97.4738 172.073 161.442
ltibia 121.893
lfoot 32.3724 -5.12523
ltoes -1.10415
333
root -0.105923 2.14059 8.86001 -2408.37 -10.4262 184.927
lowerback 40.0839 7.22192 1.78478
upperback 27.3787 -2.40518 1.45289
thorax 11.5997 -6.86467 0.0897199
lowerneck 8.47478 10.889 4.08565
upperneck 5.08699 14.5014 -7.51797
head 1.12245 7.15686 -3.25025
rclavicle -1.13307e-014 7.95139e-015
rhumerus -373.755 -1.5906 289.323
rradius 48.0499
rwrist 3.93226
rhand -27.2201 18.359
rfingers 7.12502
rthumb -0.632674 -11.6198
lclavicle -1.13307e-014 7.95139e-015
lhumerus -0.983772 -45.7632 50.7267
lradius 64.0462
lwrist 22.3947
lhand -45.1729 3.54298
lfingers 7.12502
lthumb -17.95 752.735
rfemur -259.211 -147.873 181.93
rtibia 119.278
rfoot 36.2975 12.451
rtoes 0.0649549
lfemur 97.6335 172.218 161.411
ltibia 121.811
lfoot 32.4621 -4.92265
ltoes -0.863769
334
root -0.106617 2.12563 8.87036 -2408.56 -10.49 184.961
lowerback 39.5896 7.33751 1.45764
upperback 27.3692 -2.21732 1.41201
thorax 11.716 -6.75655 0.156659
lowerneck 8.30398 10.7954 4.2267
upperneck 5.3577 14.3868 -7.39492
head 1.23266 7.08999 -3.21452
rclavicle 3.4191e-014 1.59028e-014
rhumerus -372.025 -2.21027 289.226
rradius 46.633
rwrist 4.32137
rhand -27.0949 18.8449
rfingers 7.12502
rthumb -0.511732 -11.1343
lclavicle 3.4191e-014 1.59028e-014
lhumerus 1.16449 -44.4737 50.3483
lradius 62.3043
lwrist 21.3808
lhand -45.2666 2.56648
lfingers 7.12502
lthumb -18.0402 751.75
rfemur -258.973 -147.984 181.741
rtibia 119.184
rfoot 36.4065 12.3608
rtoes 0.22125
lfemur 97.8108 172.366 161.366
ltibia 121.722
lfoot 32.5494 -4.7293
ltoes -0.599036
335
root -0.107711 2.11122 8.88245 -2408.76 -10.5522 185.003
lowerback 39.0757 7.44285 1.14491
upperback 27.3692 -2.03738 1.36255
thorax 11.8535 -6.65087 0.207882
lowerneck 8.10593 10.6929 4.4143
upperneck 5.69794 14.2625 -7.28476
head 1.3747 7.01683 -3.18784
rclavicle -1.39149e-015 5.40694e-014
rhumerus -370.288 -2.90905 289.047
rradius 45.1454
rwrist 4.83232
rhand -26.9147 19.294
rfingers 7.12502
rthumb -0.337729 -10.6854
lclavicle -1.39149e-015 5.40694e-014
lhumerus 3.1237 -43.127 50.1686
lradius 60.5786
lwrist 20.2641
lhand -45.2908 1.48586
lfingers 7.12502
lthumb -18.0634 750.667
rfemur -258.73 -148.095 181.553
rtibia 119.086
rfoot 36.5123 12.2468
rtoes 0.432138
lfemur 97.9933 172.518 161.314
ltibia 121.633
lfoot 32.6248 -4.52932
ltoes -0.419286
336
root -0.108731 2.09664 8.89454 -2408.94 -10.651 185.047
lowerback 38.5211 7.55545 0.77245
upperback 27.3804 -1.86394 1.33246
thorax 12.0203 -6.56097 0.310834
lowerneck 7.81361 10.6006 4.56234
upperneck 6.16701 14.1455 -7.17774
head 1.5733 6.94097 -3.1469
rclavicle 1.63003e-014 1.74931e-014
rhumerus -368.487 -3.62173 288.843
rradius 43.5421
rwrist 5.48056
rhand -26.7533 19.6632
rfingers 7.12502
rthumb -0.181852 -10.3164
lclavicle 1.63003e-014 1.74931e-014
lhumerus 4.92768 -41.7066 50.2276
lradius 58.8656
lwrist 19.0837
lhand -45.2213 0.22606
lfingers 7.12502
lthumb -17.9966 749.413
rfemur -258.5 -148.174 181.335
rtibia 118.988
rfoot 36.6256 12.1669
rtoes 0.547733
lfemur 98.1566 172.715 161.227
ltibia 121.538
lfoot 32.6755 -4.31769
ltoes -0.298116
337
root -0.109409 2.08267 8.90603 -2409.13 -10.75 185.085
lowerback 37.958 7.67396 0.411864
upperback 27.3899 -1.67044 1.30015
thorax 12.1906 -6.45764 0.402993
lowerneck 7.563 10.4877 4.7553
upperneck 6.64525 14.0011 -7.08227
head 1.77146 6.85271 -3.12179
rclavicle 6.42074e-014 6.67916e-014
rhumerus -366.735 -4.37867 288.569
rradius 41.9126
rwrist 6.18408
rhand -26.6627 19.798
rfingers 7.12502
rthumb -0.0942659 -10.1818
lclavicle 6.42074e-014 6.67916e-014
lhumerus 6.63557 -40.3433 50.3912
lradius 57.2138
lwrist 17.971
lhand -45.0408 -1.03019
lfingers 7.12502
lthumb -17.8229 748.173
rfemur -258.261 -148.243 181.115
rtibia 118.883
rfoot 36.7254 12.1196
rtoes 0.662352
lfemur 98.3266 172.887 161.138
ltibia 121.443
lfoot 32.7503 -4.06579
ltoes -0.00882551
